<?xml version="1.0" encoding="UTF-8" standalone="no"?>
<!-- Generator: Adobe Illustrator 16.0.4, SVG Export Plug-In . SVG Version: 6.00 Build 0)  -->

<svg
   xmlns:dc="http://purl.org/dc/elements/1.1/"
   xmlns:cc="http://creativecommons.org/ns#"
   xmlns:rdf="http://www.w3.org/1999/02/22-rdf-syntax-ns#"
   xmlns:svg="http://www.w3.org/2000/svg"
   xmlns="http://www.w3.org/2000/svg"
   xmlns:xlink="http://www.w3.org/1999/xlink"
   xmlns:sodipodi="http://sodipodi.sourceforge.net/DTD/sodipodi-0.dtd"
   xmlns:inkscape="http://www.inkscape.org/namespaces/inkscape"
   version="1.1"
   id="Layer_1"
   x="0px"
   y="0px"
   width="216px"
   height="216px"
   viewBox="0 0 216 216"
   enable-background="new 0 0 216 216"
   xml:space="preserve"
   inkscape:version="0.91 r13725"
   sodipodi:docname="logo.svg"
   inkscape:export-filename="C:\Users\Rax\Desktop\Client\logo.png"
   inkscape:export-xdpi="90"
   inkscape:export-ydpi="90"><metadata
     id="metadata145"><rdf:RDF><cc:Work
         rdf:about=""><dc:format>image/svg+xml</dc:format><dc:type
           rdf:resource="http://purl.org/dc/dcmitype/StillImage" /></cc:Work></rdf:RDF></metadata><defs
     id="defs143" /><sodipodi:namedview
     pagecolor="#ffffff"
     bordercolor="#666666"
     borderopacity="1"
     objecttolerance="10"
     gridtolerance="10"
     guidetolerance="10"
     inkscape:pageopacity="0"
     inkscape:pageshadow="2"
     inkscape:window-width="690"
     inkscape:window-height="480"
     id="namedview141"
     showgrid="false"
     inkscape:zoom="1.0925926"
     inkscape:cx="108"
     inkscape:cy="108"
     inkscape:window-x="-32000"
     inkscape:window-y="-32000"
     inkscape:window-maximized="0"
     inkscape:current-layer="Layer_1" /><g
     id="g3"
     transform="matrix(1.1582604,0,0,1.1582604,-17.155501,-17.143948)"><g
       id="g5"><g
         id="g7"><path
           d="m 108.401,200.034 c -6.331,0 -12.511,-0.643 -18.481,-1.864 -5.969,-1.22 -11.727,-3.022 -17.214,-5.343 -5.484,-2.32 -10.7,-5.161 -15.576,-8.456 -4.88,-3.296 -9.426,-7.05 -13.572,-11.197 -4.15,-4.148 -7.904,-8.695 -11.201,-13.571 -3.296,-4.881 -6.133,-10.095 -8.453,-15.579 -2.322,-5.49 -4.125,-11.244 -5.344,-17.217 -1.22,-5.969 -1.866,-12.148 -1.866,-18.481 0,-6.329 0.646,-12.51 1.866,-18.483 1.22,-5.967 3.022,-11.727 5.344,-17.211 2.32,-5.488 5.157,-10.7 8.453,-15.58 3.297,-4.881 7.051,-9.422 11.201,-13.571 4.146,-4.152 8.692,-7.9 13.572,-11.198 4.876,-3.296 10.092,-6.137 15.576,-8.458 5.488,-2.317 11.245,-4.121 17.214,-5.344 5.97,-1.218 12.15,-1.86 18.481,-1.86 6.332,0 12.513,0.643 18.483,1.86 5.97,1.224 11.729,3.027 17.213,5.344 5.487,2.321 10.7,5.161 15.577,8.458 4.883,3.298 9.425,7.046 13.574,11.198 4.15,4.149 7.902,8.69 11.199,13.571 3.295,4.88 6.135,10.092 8.453,15.58 2.321,5.484 4.124,11.244 5.346,17.211 1.219,5.973 1.861,12.154 1.861,18.483 0,6.333 -0.643,12.512 -1.861,18.481 -1.222,5.973 -3.024,11.727 -5.346,17.217 -2.318,5.484 -5.158,10.698 -8.453,15.579 -3.297,4.876 -7.049,9.423 -11.199,13.571 -4.149,4.147 -8.691,7.901 -13.574,11.197 -4.877,3.295 -10.09,6.136 -15.577,8.456 -5.483,2.32 -11.243,4.123 -17.213,5.343 -5.97,1.222 -12.152,1.864 -18.483,1.864 z"
           id="path9"
           inkscape:connector-curvature="0"
           style="fill:#0089cf" /><path
           stroke-miterlimit="10"
           d="m 108.401,200.034 c -6.331,0 -12.511,-0.643 -18.481,-1.864 -5.969,-1.22 -11.727,-3.022 -17.214,-5.343 -5.484,-2.32 -10.7,-5.161 -15.576,-8.456 -4.88,-3.296 -9.426,-7.05 -13.572,-11.197 -4.15,-4.148 -7.904,-8.695 -11.201,-13.571 -3.296,-4.881 -6.133,-10.095 -8.453,-15.579 -2.322,-5.49 -4.125,-11.244 -5.344,-17.217 -1.22,-5.969 -1.866,-12.148 -1.866,-18.481 0,-6.329 0.646,-12.51 1.866,-18.483 1.22,-5.967 3.022,-11.727 5.344,-17.211 2.32,-5.488 5.157,-10.7 8.453,-15.58 3.297,-4.881 7.051,-9.422 11.201,-13.571 4.146,-4.152 8.692,-7.9 13.572,-11.198 4.876,-3.296 10.092,-6.137 15.576,-8.458 5.488,-2.317 11.245,-4.121 17.214,-5.344 5.97,-1.218 12.15,-1.86 18.481,-1.86 6.332,0 12.513,0.643 18.483,1.86 5.97,1.224 11.729,3.027 17.213,5.344 5.487,2.321 10.7,5.161 15.577,8.458 4.883,3.298 9.425,7.046 13.574,11.198 4.15,4.149 7.902,8.69 11.199,13.571 3.295,4.88 6.135,10.092 8.453,15.58 2.321,5.484 4.124,11.244 5.346,17.211 1.219,5.973 1.861,12.154 1.861,18.483 0,6.333 -0.643,12.512 -1.861,18.481 -1.222,5.973 -3.024,11.727 -5.346,17.217 -2.318,5.484 -5.158,10.698 -8.453,15.579 -3.297,4.876 -7.049,9.423 -11.199,13.571 -4.149,4.147 -8.691,7.901 -13.574,11.197 -4.877,3.295 -10.09,6.136 -15.577,8.456 -5.483,2.32 -11.243,4.123 -17.213,5.343 -5.97,1.222 -12.152,1.864 -18.483,1.864 z"
           id="path11"
           inkscape:connector-curvature="0"
           style="fill:none;stroke:#ffffff;stroke-width:1.64999998;stroke-miterlimit:10" /></g><path
         stroke-miterlimit="10"
         d="m 108.401,193.426 c -5.875,0 -11.609,-0.596 -17.149,-1.729 -5.54,-1.133 -10.882,-2.807 -15.974,-4.958 -5.088,-2.152 -9.929,-4.788 -14.454,-7.847 -4.528,-3.058 -8.747,-6.542 -12.594,-10.39 -3.853,-3.85 -7.335,-8.07 -10.394,-12.594 -3.059,-4.53 -5.692,-9.367 -7.844,-14.457 -2.155,-5.094 -3.827,-10.434 -4.96,-15.977 -1.132,-5.538 -1.73,-11.273 -1.73,-17.149 0,-5.872 0.599,-11.608 1.73,-17.15 1.133,-5.539 2.805,-10.882 4.96,-15.971 2.152,-5.093 4.785,-9.928 7.844,-14.457 3.059,-4.53 6.541,-8.744 10.394,-12.595 3.847,-3.851 8.065,-7.331 12.594,-10.391 4.525,-3.059 9.366,-5.694 14.454,-7.847 5.092,-2.151 10.434,-3.825 15.974,-4.96 5.54,-1.13 11.274,-1.726 17.149,-1.726 5.875,0 11.611,0.596 17.151,1.726 5.54,1.136 10.884,2.809 15.974,4.96 5.092,2.152 9.928,4.788 14.454,7.847 4.529,3.06 8.746,6.54 12.597,10.391 3.85,3.851 7.333,8.065 10.391,12.595 3.059,4.529 5.694,9.364 7.844,14.457 2.155,5.089 3.826,10.432 4.96,15.971 1.133,5.542 1.729,11.278 1.729,17.15 0,5.876 -0.597,11.611 -1.729,17.149 -1.134,5.543 -2.805,10.883 -4.96,15.977 -2.149,5.09 -4.785,9.927 -7.844,14.457 -3.058,4.523 -6.541,8.744 -10.391,12.594 -3.851,3.848 -8.067,7.332 -12.597,10.39 -4.526,3.059 -9.362,5.694 -14.454,7.847 -5.09,2.151 -10.434,3.824 -15.974,4.958 -5.54,1.134 -11.277,1.729 -17.151,1.729 z"
         id="path13"
         inkscape:connector-curvature="0"
         style="fill:#ffffff;stroke:#0089cf;stroke-width:2.65989995;stroke-miterlimit:10" /><g
         id="g15"><defs
           id="defs17"><circle
             id="SVGID_1_"
             cx="108.401"
             cy="108.329"
             r="53.296001" /></defs><use
           xlink:href="#SVGID_1_"
           overflow="visible"
           id="use20"
           style="overflow:visible;fill:#00aeef"
           x="0"
           y="0"
           width="100%"
           height="100%" /><clipPath
           id="SVGID_2_"><use
             xlink:href="#SVGID_1_"
             overflow="visible"
             id="use23"
             style="overflow:visible"
             x="0"
             y="0"
             width="100%"
             height="100%" /></clipPath><g
           clip-path="url(#SVGID_2_)"
           id="g25"><g
             id="g27"><path
               d="m 49.455,46.735 c 5.091,-2.67 6.453,2.86 12.202,2.86 5.748,0 5.748,-3.033 11.496,-3.033 5.749,0 5.749,3.033 11.497,3.033 5.748,0 5.748,-3.033 11.497,-3.033 5.747,0 5.747,3.033 11.493,3.033 5.749,0 5.749,-3.033 11.497,-3.033 5.75,0 5.75,3.033 11.5,3.033 5.748,0 5.748,-3.033 11.496,-3.033 5.752,0 5.752,3.033 11.504,3.033 5.753,0 7.111,-5.527 12.208,-2.86 2.666,1.395 -2.22,4.353 -2.22,7.362 0,3.011 3.033,3.011 3.033,6.021 0,3.012 -3.033,3.012 -3.033,6.024 0,3.012 3.033,3.012 3.033,6.023 0,3.011 -3.033,3.012 -3.033,6.024 0,3.012 3.033,3.012 3.033,6.025 0,3.011 -3.033,3.011 -3.033,6.022 0,3.014 3.033,3.014 3.033,6.027 0,3.016 -3.033,3.016 -3.033,6.032 0,3.016 4.892,5.973 2.221,7.375 -5.09,2.67 -6.453,-2.86 -12.201,-2.86 -5.748,0 -5.748,3.033 -11.496,3.033 -5.748,0 -5.748,-3.033 -11.496,-3.033 -5.748,0 -5.748,3.033 -11.496,3.033 -5.747,0 -5.747,-3.033 -11.494,-3.033 -5.748,0 -5.748,3.033 -11.496,3.033 -5.75,0 -5.75,-3.033 -11.5,-3.033 -5.748,0 -5.748,3.033 -11.496,3.033 -5.752,0 -5.752,-3.033 -11.504,-3.033 -5.752,0 -7.11,5.526 -12.208,2.86 -2.666,-1.395 2.22,-4.353 2.22,-7.362 0,-3.01 -3.033,-3.01 -3.033,-6.021 0,-3.012 3.033,-3.012 3.033,-6.023 0,-3.011 -3.033,-3.012 -3.033,-6.024 0,-3.012 3.033,-3.012 3.033,-6.024 0,-3.013 -3.033,-3.013 -3.033,-6.025 0,-3.011 3.033,-3.011 3.033,-6.022 0,-3.014 -3.033,-3.014 -3.033,-6.027 0,-3.016 3.793,-3.539 2.977,-6.442 -1.097,-3.888 -4.839,-5.563 -2.168,-6.965 z"
               id="path29"
               inkscape:connector-curvature="0"
               style="fill:#0089cf" /><path
               stroke-miterlimit="10"
               d="m 49.455,46.735 c 5.091,-2.67 6.453,2.86 12.202,2.86 5.748,0 5.748,-3.033 11.496,-3.033 5.749,0 5.749,3.033 11.497,3.033 5.748,0 5.748,-3.033 11.497,-3.033 5.747,0 5.747,3.033 11.493,3.033 5.749,0 5.749,-3.033 11.497,-3.033 5.75,0 5.75,3.033 11.5,3.033 5.748,0 5.748,-3.033 11.496,-3.033 5.752,0 5.752,3.033 11.504,3.033 5.753,0 7.111,-5.527 12.208,-2.86 2.666,1.395 -2.22,4.353 -2.22,7.362 0,3.011 3.033,3.011 3.033,6.021 0,3.012 -3.033,3.012 -3.033,6.024 0,3.012 3.033,3.012 3.033,6.023 0,3.011 -3.033,3.012 -3.033,6.024 0,3.012 3.033,3.012 3.033,6.025 0,3.011 -3.033,3.011 -3.033,6.022 0,3.014 3.033,3.014 3.033,6.027 0,3.016 -3.033,3.016 -3.033,6.032 0,3.016 4.892,5.973 2.221,7.375 -5.09,2.67 -6.453,-2.86 -12.201,-2.86 -5.748,0 -5.748,3.033 -11.496,3.033 -5.748,0 -5.748,-3.033 -11.496,-3.033 -5.748,0 -5.748,3.033 -11.496,3.033 -5.747,0 -5.747,-3.033 -11.494,-3.033 -5.748,0 -5.748,3.033 -11.496,3.033 -5.75,0 -5.75,-3.033 -11.5,-3.033 -5.748,0 -5.748,3.033 -11.496,3.033 -5.752,0 -5.752,-3.033 -11.504,-3.033 -5.752,0 -7.11,5.526 -12.208,2.86 -2.666,-1.395 2.22,-4.353 2.22,-7.362 0,-3.01 -3.033,-3.01 -3.033,-6.021 0,-3.012 3.033,-3.012 3.033,-6.023 0,-3.011 -3.033,-3.012 -3.033,-6.024 0,-3.012 3.033,-3.012 3.033,-6.024 0,-3.013 -3.033,-3.013 -3.033,-6.025 0,-3.011 3.033,-3.011 3.033,-6.022 0,-3.014 -3.033,-3.014 -3.033,-6.027 0,-3.016 3.793,-3.539 2.977,-6.442 -1.097,-3.888 -4.839,-5.563 -2.168,-6.965 z"
               id="path31"
               inkscape:connector-curvature="0"
               style="fill:none;stroke:#ffffff;stroke-width:1.9928;stroke-miterlimit:10" /></g></g></g><g
         id="g33"><path
           d="m 48.741,65.749 c -0.646,-0.276 -1.088,-0.251 -1.648,0.139 -0.612,0.426 -1.314,1.17 -1.838,1.993 -1.374,2.153 -1.318,3.89 0.173,4.841 1.13,0.72 2.293,0.407 3.619,-0.959 l 2.125,-2.219 c 1.98,-2.037 4.038,-2.461 5.994,-1.213 2.541,1.62 2.778,4.494 0.648,7.832 -0.447,0.701 -0.684,1.026 -2.351,3.196 -0.426,0.58 -0.55,0.772 -1.28,1.873 -0.187,-0.153 -0.267,-0.205 -0.428,-0.307 -0.404,-0.257 -0.707,-0.45 -1.721,-0.995 L 51.631,79.672 C 51.55,79.621 51.389,79.518 51.223,79.378 l 0.818,-1.282 c 1.581,0.77 2.508,0.204 4.282,-2.578 0.864,-1.355 1.183,-2.343 1.008,-3.27 -0.114,-0.754 -0.59,-1.431 -1.255,-1.855 -1.271,-0.811 -2.531,-0.525 -3.918,0.938 l -1.899,1.954 c -2.108,2.194 -4.137,2.705 -6.032,1.497 -1.168,-0.747 -1.867,-2.009 -1.865,-3.435 -0.004,-1.194 0.475,-2.523 1.478,-4.095 0.355,-0.557 0.638,-0.955 1.197,-1.653 0.893,-1.132 1.272,-1.639 1.673,-2.268 l 0.278,-0.435 0.222,0.141 0.424,0.271 c 0.141,0.09 0.343,0.219 0.599,0.349 0.576,0.298 0.777,0.427 0.919,0.518 0.161,0.102 0.221,0.141 0.408,0.294 l -0.819,1.28 z"
           id="path35"
           inkscape:connector-curvature="0"
           style="fill:#00aeef" /><path
           d="m 61.431,62.099 1.086,3.632 c 0.082,0.218 0.237,0.56 0.334,0.667 0.209,0.23 0.399,0.185 0.879,-0.185 l 0.557,0.786 -3.06,2.777 -0.58,-0.767 c 0.402,-0.496 0.418,-0.605 0.126,-1.696 L 57.359,54.455 c -0.244,-0.91 -0.508,-1.542 -0.861,-1.932 l 1.87,-1.698 c 0.354,0.39 0.68,0.579 1.838,1.044 l 12.133,5.171 c 0.834,0.407 1.058,0.397 1.568,-0.066 l 0.579,0.767 -3.209,2.912 -0.579,-0.767 c 0.388,-0.384 0.457,-0.607 0.263,-0.82 -0.097,-0.106 -0.385,-0.296 -0.647,-0.414 l -3.425,-1.511 -5.458,4.958 z m -0.922,-7.722 c -0.786,-0.353 -1.53,-0.874 -1.99,-1.425 l -0.107,0.097 c 0.509,0.603 0.789,1.125 1.098,2.233 l 1.488,5.271 4.462,-4.05 -4.951,-2.126 z"
           id="path37"
           inkscape:connector-curvature="0"
           style="fill:#00aeef" /><path
           d="m 86.52,48.356 c 0.23,0.527 0.289,0.71 0.754,2.162 0.128,0.39 0.157,0.509 0.327,0.852 l -11.307,5.621 -0.35,-0.895 0.206,-0.102 c 0.9,-0.448 0.93,-0.837 0.228,-2.25 l -4.544,-9.145 c -0.703,-1.413 -1.031,-1.623 -1.931,-1.176 l -0.283,0.14 -0.349,-0.895 4.96,-2.465 0.35,0.895 -0.386,0.192 c -0.9,0.447 -0.931,0.836 -0.229,2.25 l 4.353,8.757 c 0.67,1.349 1.112,1.53 2.294,0.942 l 2.544,-1.266 c 2.108,-1.047 2.431,-1.555 1.998,-2.942 l 1.365,-0.675 z"
           id="path39"
           inkscape:connector-curvature="0"
           style="fill:#00aeef" /><path
           d="M 96.095,35.946 C 96.054,35.66 96.014,35.498 95.986,35.382 95.78,34.546 95.444,34.506 92.965,35.116 l -1.337,0.328 2.783,11.311 c 0.377,1.532 0.652,1.81 1.628,1.569 l 0.306,-0.076 0.145,0.95 -5.182,1.276 -0.146,-0.95 0.224,-0.056 c 0.975,-0.239 1.09,-0.612 0.712,-2.145 l -2.783,-11.311 -1.644,0.404 c -2.257,0.557 -2.28,0.587 -2.137,2.127 L 84.03,38.914 C 83.987,38.26 83.866,37.527 83.637,36.598 83.592,36.411 83.551,36.249 83.454,35.977 L 96.97,32.65 c 0.138,0.68 0.459,2.227 0.603,2.931 l -1.478,0.365 z"
           id="path41"
           inkscape:connector-curvature="0"
           style="fill:#00aeef" /><path
           d="m 123.843,46.391 c -0.104,0.565 -0.158,0.751 -0.584,2.214 -0.11,0.395 -0.155,0.51 -0.206,0.89 l -12.516,-1.669 0.213,-0.936 0.228,0.031 c 0.995,0.133 1.239,-0.173 1.448,-1.738 l 1.348,-10.121 c 0.208,-1.564 0.054,-1.922 -0.942,-2.055 l -0.313,-0.042 0.213,-0.936 5.489,0.731 -0.212,0.937 -0.426,-0.056 c -0.996,-0.132 -1.24,0.172 -1.447,1.736 l -1.293,9.694 c -0.199,1.495 0.067,1.892 1.375,2.066 l 2.816,0.375 c 2.332,0.31 2.885,0.07 3.303,-1.321 l 1.506,0.2 z"
           id="path43"
           inkscape:connector-curvature="0"
           style="fill:#00aeef" /><path
           d="m 131.66,46.649 -2.883,2.463 c -0.166,0.162 -0.417,0.442 -0.475,0.574 -0.126,0.284 -0.008,0.442 0.523,0.729 l -0.492,0.828 -3.777,-1.677 0.467,-0.84 c 0.615,0.17 0.724,0.139 1.604,-0.57 l 10.378,-8.32 c 0.733,-0.591 1.204,-1.088 1.418,-1.568 l 2.308,1.024 c -0.213,0.481 -0.254,0.856 -0.211,2.104 l 0.176,13.187 c -0.035,0.927 0.064,1.127 0.693,1.406 l -0.467,0.84 -3.959,-1.758 0.467,-0.839 c 0.508,0.199 0.739,0.172 0.855,-0.09 0.059,-0.131 0.115,-0.472 0.117,-0.759 l -0.003,-3.743 -6.739,-2.991 z m 6.688,-3.966 c 0.005,-0.86 0.181,-1.75 0.498,-2.395 l -0.131,-0.059 c -0.348,0.709 -0.711,1.176 -1.602,1.907 l -4.217,3.492 5.508,2.444 -0.056,-5.389 z"
           id="path45"
           inkscape:connector-curvature="0"
           style="fill:#00aeef" /><path
           d="m 153.802,65.218 c -0.064,1.045 0.057,1.433 0.63,1.956 l -0.688,0.67 -2.223,-1.906 0.678,-9.875 -3.035,0.012 -2.007,2.343 c -1.026,1.198 -1.092,1.583 -0.329,2.237 l 0.392,0.336 -0.688,0.67 -4.205,-3.604 0.688,-0.67 0.175,0.15 c 0.762,0.653 1.133,0.529 2.16,-0.668 l 6.645,-7.754 c 1.026,-1.198 1.092,-1.583 0.33,-2.237 l -0.24,-0.206 0.688,-0.67 4.271,3.661 -0.688,0.67 -0.392,-0.336 c -0.763,-0.654 -1.133,-0.53 -2.16,0.667 l -3.33,3.887 7.034,-0.049 c 1.996,0.009 2.414,-0.041 2.586,-0.24 0.248,-0.292 0.119,-0.624 -0.469,-1.127 l 0.708,-0.651 3.573,3.063 -0.709,0.651 c -0.967,-0.105 -1.027,-0.125 -1.992,-0.101 l -6.912,-0.004 -0.491,9.125 z"
           id="path47"
           inkscape:connector-curvature="0"
           style="fill:#00aeef" /><path
           d="m 174.941,70.712 c -0.202,0.17 -0.281,0.224 -0.464,0.381 l -0.575,0.559 c -0.633,0.601 -0.737,0.705 -1.133,0.972 l -0.85,-1.262 0.223,-0.184 c 0.808,-0.683 0.759,-0.926 -0.539,-2.855 l -1.602,-2.38 c -0.77,-1.143 -1.021,-1.217 -1.914,-0.616 l -3.512,2.364 3.99,5.928 -1.238,0.729 -3.941,-5.855 -3.73,2.51 c -1.109,0.747 -1.195,1.22 -0.443,2.338 l 1.811,2.69 c 1.299,1.93 1.809,2.173 3.115,1.501 l 0.865,1.287 c -0.492,0.296 -0.666,0.38 -2.045,1.029 -0.385,0.156 -0.484,0.223 -0.818,0.413 l -7.243,-10.761 0.842,-0.462 0.129,0.19 c 0.561,0.833 0.95,0.813 2.26,-0.068 l 8.471,-5.701 c 1.31,-0.882 1.476,-1.236 0.914,-2.069 l -0.177,-0.262 0.842,-0.462 6.762,10.046 z"
           id="path49"
           inkscape:connector-curvature="0"
           style="fill:#00aeef" /></g><g
         id="g51"><path
           d="m 47.908,126.17 c 0.65,-0.266 0.942,-0.598 1.057,-1.271 0.127,-0.736 0.09,-1.757 -0.127,-2.709 -0.568,-2.489 -1.843,-3.67 -3.569,-3.275 -1.305,0.299 -1.899,1.348 -1.858,3.25 l 0.089,3.07 c 0.06,2.842 -1.083,4.604 -3.345,5.119 -2.938,0.672 -5.15,-1.177 -6.031,-5.037 -0.185,-0.812 -0.251,-1.209 -0.625,-3.92 -0.113,-0.709 -0.165,-0.934 -0.435,-2.225 0.239,-0.025 0.333,-0.047 0.52,-0.09 0.465,-0.105 0.815,-0.186 1.916,-0.525 l 0.466,-0.107 c 0.094,-0.021 0.281,-0.063 0.497,-0.082 l 0.338,1.481 c -1.656,0.585 -1.906,1.642 -1.171,4.858 0.357,1.566 0.837,2.488 1.621,3.014 0.617,0.449 1.433,0.586 2.202,0.41 1.468,-0.336 2.15,-1.433 2.082,-3.449 l -0.058,-2.723 c -0.081,-3.042 0.979,-4.846 3.169,-5.346 1.354,-0.309 2.741,0.081 3.757,1.086 0.853,0.835 1.463,2.107 1.877,3.926 0.147,0.644 0.232,1.125 0.338,2.014 0.178,1.43 0.273,2.057 0.439,2.783 l 0.114,0.504 -0.256,0.058 -0.49,0.112 c -0.163,0.038 -0.396,0.09 -0.669,0.184 -0.616,0.199 -0.85,0.252 -1.013,0.289 -0.187,0.043 -0.256,0.059 -0.496,0.084 l -0.339,-1.483 z"
           id="path53"
           inkscape:connector-curvature="0"
           style="fill:#00aeef" /><path
           d="m 57.81,140.474 c -0.911,0.62 -1.322,1.003 -2.22,2.151 l -5.069,6.397 c -1.273,1.546 -1.581,1.866 -2.54,2.548 l 0.061,0.098 0.246,-0.148 c 0.817,-0.497 1.368,-0.696 3.067,-1.123 l 6.583,-1.509 c 2.203,-0.563 2.203,-0.563 2.469,-0.726 0.469,-0.286 0.5,-0.605 0.159,-1.305 l 0.862,-0.424 2.382,3.926 -0.878,0.398 c -0.537,-0.748 -0.902,-0.795 -2.798,-0.417 l -10.965,2.491 c -0.271,0.062 -0.54,0.125 -0.83,0.199 -0.29,0.076 -0.503,0.139 -0.657,0.164 l -0.523,0.15 -0.235,0.074 -1.287,-1.938 c 0.435,-0.297 0.769,-0.668 1.657,-1.742 l 4.557,-6.088 c 0.984,-1.234 2.258,-2.41 3.645,-3.352 l -0.059,-0.099 c -1.268,0.771 -2.109,1.044 -4.716,1.587 l -7.477,1.279 c -1.088,0.189 -1.322,0.265 -2.199,0.662 l -1.393,-2.108 c 0.435,-0.298 0.831,-0.706 1.671,-1.72 l 8.844,-9.994 -0.287,-0.566 0.903,-0.446 2.381,3.925 -0.862,0.422 c -0.428,-0.611 -0.458,-0.661 -0.644,-0.783 -0.241,-0.122 -0.464,-0.121 -0.69,0.016 -0.184,0.111 -0.271,0.197 -1.032,1.063 l -5.001,5.449 c -1.004,1.112 -1.913,1.966 -2.675,2.462 l 0.06,0.098 c 0.924,-0.459 1.641,-0.66 3.552,-1.014 l 7.619,-1.366 c 2.029,-0.392 2.284,-0.479 2.994,-0.877 l 1.325,2.186 z"
           id="path55"
           inkscape:connector-curvature="0"
           style="fill:#00aeef" /><path
           d="m 64.966,153.687 c 1.07,-1.161 1.149,-1.543 0.411,-2.224 l -0.232,-0.214 0.712,-0.646 3.923,3.619 -0.712,0.646 -0.167,-0.156 c -0.739,-0.681 -1.113,-0.571 -2.183,0.589 l -6.922,7.508 c -1.07,1.162 -1.149,1.543 -0.411,2.224 l 0.232,0.214 -0.711,0.646 -3.924,-3.619 0.71,-0.646 0.17,0.155 c 0.739,0.682 1.112,0.571 2.183,-0.589 l 6.921,-7.507 z"
           id="path57"
           inkscape:connector-curvature="0"
           style="fill:#00aeef" /><path
           d="m 72.497,175.193 c 0.305,-0.783 0.417,-1.504 0.515,-3.391 l 0.23,-5.661 c 0.193,-2.886 0.552,-5.657 0.844,-6.476 l -0.077,-0.039 c -0.433,1.281 -0.59,1.713 -0.819,2.159 -0.329,0.638 -0.969,1.572 -1.971,2.831 l -3.516,4.457 c -0.568,0.729 -0.772,1 -0.903,1.256 -0.229,0.447 -0.063,0.749 0.645,1.192 l -0.514,0.812 -3.879,-1.994 0.514,-0.811 c 0.803,0.385 1.069,0.307 1.681,-0.508 l 7.997,-10.164 c -0.16,-0.191 -0.277,-0.277 -0.838,-0.566 l 0.539,-0.799 3.062,1.574 c -0.306,0.973 -0.352,1.377 -0.45,3.64 l -0.325,6.285 c -0.171,2.655 -0.328,3.462 -0.925,4.687 l 0.078,0.041 c 0.747,-1.204 0.99,-1.428 3.552,-3.337 l 7.288,-5.205 c -0.081,-0.284 -0.131,-0.311 -0.594,-0.603 l 0.514,-0.811 3.471,1.783 c -0.269,0.399 -0.356,0.569 -0.477,0.803 -0.098,0.192 -0.193,0.439 -0.288,0.687 l -3.713,10.995 -0.298,0.895 c -0.229,0.635 -0.116,0.855 0.605,1.334 l -0.513,0.811 -4.083,-2.099 0.513,-0.812 c 0.761,0.338 1.006,0.302 1.225,-0.123 0.098,-0.191 0.192,-0.438 0.298,-0.707 l 2.53,-7.437 c 0.201,-0.517 0.456,-1.137 0.74,-1.689 0.35,-0.681 0.641,-1.122 1.126,-1.814 l -0.077,-0.04 c -0.897,0.992 -2.292,2.264 -2.977,2.718 l -7,4.897 c -1.494,1.087 -1.738,1.311 -2.146,2.042 l -1.584,-0.813 z"
           id="path59"
           inkscape:connector-curvature="0"
           style="fill:#00aeef" /><path
           d="m 113.572,181.172 c -0.043,0.572 -0.076,0.764 -0.345,2.264 -0.067,0.404 -0.099,0.524 -0.11,0.906 l -12.621,-0.321 0.111,-0.954 0.228,0.006 c 1.005,0.025 1.214,-0.305 1.255,-1.881 l 0.259,-10.21 c 0.041,-1.577 -0.152,-1.917 -1.156,-1.942 l -0.315,-0.008 0.11,-0.954 5.537,0.142 -0.111,0.953 -0.43,-0.01 c -1.003,-0.026 -1.214,0.303 -1.252,1.881 l -0.25,9.777 c -0.039,1.506 0.269,1.873 1.588,1.907 l 2.839,0.071 c 2.353,0.061 2.876,-0.238 3.143,-1.665 l 1.52,0.038 z"
           id="path61"
           inkscape:connector-curvature="0"
           style="fill:#00aeef" /><path
           d="m 127.32,165.508 c 0.086,0.25 0.107,0.344 0.188,0.57 l 0.312,0.738 c 0.328,0.809 0.389,0.942 0.492,1.409 l -1.484,0.333 -0.09,-0.273 c -0.343,-1.002 -0.587,-1.044 -2.854,-0.536 l -2.8,0.628 c -1.344,0.302 -1.504,0.51 -1.268,1.559 l 0.927,4.131 6.971,-1.565 0.229,1.419 -6.886,1.546 0.983,4.386 c 0.293,1.306 0.703,1.557 2.02,1.262 l 3.164,-0.709 c 2.266,-0.51 2.68,-0.896 2.528,-2.357 l 1.511,-0.339 c 0.099,0.565 0.112,0.759 0.219,2.279 0.004,0.415 0.03,0.532 0.087,0.911 l -12.655,2.84 -0.125,-0.951 0.225,-0.051 c 0.979,-0.221 1.102,-0.59 0.756,-2.131 l -2.235,-9.961 c -0.345,-1.54 -0.614,-1.822 -1.595,-1.602 l -0.309,0.067 -0.124,-0.951 11.813,-2.652 z"
           id="path63"
           inkscape:connector-curvature="0"
           style="fill:#00aeef" /><path
           d="m 139.02,171.758 0.217,3.784 c 0.029,0.229 0.102,0.6 0.171,0.726 0.149,0.271 0.347,0.273 0.897,0.023 l 0.361,0.895 -3.619,1.993 -0.386,-0.879 c 0.507,-0.389 0.548,-0.493 0.515,-1.622 l -0.344,-13.295 c -0.027,-0.941 -0.137,-1.617 -0.392,-2.078 l 2.212,-1.219 c 0.254,0.461 0.526,0.721 1.547,1.441 l 10.604,7.833 c 0.717,0.588 0.937,0.63 1.539,0.298 l 0.386,0.879 -3.795,2.092 -0.386,-0.88 c 0.467,-0.284 0.585,-0.485 0.446,-0.737 -0.069,-0.125 -0.307,-0.377 -0.533,-0.553 l -2.981,-2.261 -6.459,3.56 z m 0.889,-7.725 c -0.683,-0.523 -1.285,-1.202 -1.606,-1.845 l -0.125,0.069 c 0.355,0.705 0.507,1.277 0.551,2.427 l 0.229,5.47 5.276,-2.908 -4.325,-3.213 z"
           id="path65"
           inkscape:connector-curvature="0"
           style="fill:#00aeef" /><path
           d="m 165.346,155.979 c 0.608,0.609 0.676,0.678 1.246,1.088 -1.039,1.07 -1.1,1.131 -2.023,2.357 -1.28,1.683 -1.611,2.081 -2.363,2.832 -3.717,3.709 -7.663,3.693 -11.396,-0.046 -1.96,-1.963 -2.898,-3.999 -2.857,-6.235 0.039,-2.031 0.943,-3.846 2.914,-5.812 0.507,-0.507 1.23,-1.162 2.29,-2.051 l 0.884,-0.781 0.725,-0.654 0.523,-0.49 0.207,0.167 0.446,0.364 0.554,0.395 c 0.744,0.541 0.898,0.656 1.273,0.992 l -1.096,1.094 c -1.268,-0.661 -2.361,-0.212 -4.371,1.794 -1.746,1.743 -2.461,3.302 -2.254,4.851 0.226,1.565 1.127,3.201 2.562,4.639 1.352,1.354 2.842,2.197 4.229,2.369 1.516,0.177 3.037,-0.532 4.783,-2.275 2.133,-2.128 2.33,-2.865 1.113,-4.084 l -1.099,-1.1 c -1.029,-1.033 -1.142,-1.021 -2.743,0.541 l -0.594,-0.759 4.225,-4.215 0.615,0.738 -0.285,0.284 c -0.629,0.628 -0.515,0.986 0.6,2.104 l 1.892,1.893 z"
           id="path67"
           inkscape:connector-curvature="0"
           style="fill:#00aeef" /><path
           d="m 174.273,135.871 c 1.6,0.864 2.562,2.101 2.655,3.488 0.113,1.301 -0.449,3.246 -1.459,5.113 -0.995,1.844 -2.272,3.307 -3.464,4 -1.274,0.747 -2.773,0.654 -4.414,-0.231 l -7.259,-3.922 c -1.389,-0.749 -1.778,-0.731 -2.257,0.151 l -0.149,0.279 -0.802,-0.531 2.538,-4.695 0.8,0.529 -0.109,0.202 c -0.477,0.885 -0.277,1.22 1.111,1.971 l 6.88,3.716 c 1.452,0.784 2.291,0.942 3.108,0.635 0.847,-0.358 1.83,-1.425 2.621,-2.889 0.777,-1.439 1.129,-2.846 0.966,-3.75 -0.192,-0.854 -0.784,-1.468 -2.235,-2.252 l -6.881,-3.715 c -1.389,-0.751 -1.778,-0.733 -2.256,0.15 l -0.15,0.277 -0.8,-0.53 2.496,-4.619 0.8,0.529 -0.109,0.202 c -0.477,0.884 -0.278,1.22 1.111,1.97 l 7.258,3.922 z"
           id="path69"
           inkscape:connector-curvature="0"
           style="fill:#00aeef" /><path
           d="m 168.193,115.43 c 0.264,0.028 0.357,0.048 0.597,0.07 l 0.802,0.029 c 0.871,0.044 1.019,0.046 1.484,0.147 l -0.323,1.487 -0.287,-0.033 c -1.052,-0.113 -1.194,0.092 -1.69,2.361 l -0.614,2.805 c -0.294,1.346 -0.173,1.577 0.878,1.807 l 4.135,0.904 1.526,-6.981 1.384,0.391 -1.508,6.897 4.392,0.959 c 1.309,0.286 1.71,0.021 1.997,-1.296 l 0.691,-3.168 c 0.498,-2.271 0.322,-2.81 -1.067,-3.29 l 0.332,-1.514 c 0.555,0.15 0.735,0.221 2.157,0.766 0.379,0.171 0.496,0.197 0.863,0.307 l -2.77,12.674 -0.916,-0.289 0.049,-0.225 c 0.215,-0.98 -0.07,-1.25 -1.611,-1.586 l -9.977,-2.182 c -1.541,-0.336 -1.912,-0.211 -2.125,0.771 l -0.068,0.307 -0.916,-0.287 2.585,-11.831 z"
           id="path71"
           inkscape:connector-curvature="0"
           style="fill:#00aeef" /></g></g><g
       id="g73"><g
         id="g75"><g
           id="g77"><g
             id="g79"><g
               id="g81"><g
                 id="g83"><g
                   id="g85"><g
                     id="g87"><path
                       d="m 100.177,78.026 c -0.116,-1.659 -0.409,-2.44 -1.229,-3.123 -0.938,-0.83 -2.928,-1.368 -5.155,-1.368 -3.28,0 -5.331,1.368 -5.331,3.564 0,1.61 1.406,2.83 4.159,3.661 l 6.15,1.805 c 5.507,1.61 8.201,4.687 8.201,9.468 0,2.93 -1.23,5.516 -3.456,7.371 -2.343,1.952 -5.565,2.88 -10.368,2.88 -1.757,0 -3.397,-0.099 -6.678,-0.439 l -2.577,-0.195 -1.933,-0.146 -0.996,-0.098 -0.059,-1.172 -0.058,-2.002 -0.118,-2.098 -0.176,-1.854 c -0.117,-0.731 -0.117,-1.123 -0.117,-1.66 0,-0.097 0,-0.391 0.058,-0.684 l 5.565,-0.098 c 0,3.564 2.108,5.175 6.854,5.175 3.573,0 5.856,-1.513 5.856,-3.954 0,-0.977 -0.527,-1.952 -1.406,-2.538 -0.761,-0.537 -1.464,-0.831 -3.631,-1.513 L 87.7,87.154 c -5.212,-1.612 -7.849,-4.686 -7.849,-8.982 0,-6.003 4.979,-9.711 13.003,-9.711 1.583,0 2.812,0.097 5.038,0.39 3.749,0.438 5.389,0.584 7.38,0.634 0,1.562 0.058,2.343 0.176,4.148 0.117,1.562 0.176,2.246 0.176,3.125 l 0,1.269 -5.447,0 z"
                       id="path89"
                       inkscape:connector-curvature="0"
                       style="fill:#ffffff" /><path
                       d="m 140.463,92.523 c -0.117,0.878 -0.176,1.171 -0.293,1.854 l -0.352,2.148 c -0.117,0.83 -0.352,2.538 -0.645,5.125 l -27.471,0 0.176,-3.564 0.469,0 c 1.932,0 2.459,-0.731 2.459,-3.367 l 0,-18.694 c 0,-2.636 -0.527,-3.368 -2.459,-3.368 l -0.645,0 0.176,-3.563 14.819,0 -0.177,3.563 -1.054,0 c -1.933,0 -2.46,0.732 -2.46,3.368 l 0,17.279 c 0,1.22 0.059,1.611 0.293,2.05 0.293,0.683 1.23,1.073 2.4,1.073 l 3.456,0 c 3.456,0 4.804,-0.975 5.447,-3.904 l 5.861,0 z"
                       id="path91"
                       inkscape:connector-curvature="0"
                       style="fill:#ffffff" /></g></g></g></g></g></g></g><g
         id="g93"><g
           id="g95"><g
             id="g97"><g
               id="g99"><g
                 id="g101"><g
                   id="g103"><path
                     d="m 105.625,138.631 0,1.269 c 0,0.878 -0.059,1.562 -0.176,3.123 -0.118,1.806 -0.176,2.588 -0.176,4.149 -1.992,0.049 -3.631,0.195 -7.38,0.635 -2.227,0.293 -3.456,0.391 -5.038,0.391 -8.024,0 -13.003,-3.709 -13.003,-9.713 0,-4.295 2.636,-7.371 7.849,-8.98 l 6.034,-1.855 c 2.167,-0.684 2.87,-0.977 3.631,-1.514 0.879,-0.585 1.406,-1.561 1.406,-2.537 0,-2.441 -2.284,-3.953 -5.856,-3.953 -4.746,0 -6.854,1.61 -6.854,5.173 l -5.565,-0.097 c -0.058,-0.294 -0.058,-0.587 -0.058,-0.685 0,-0.536 0,-0.927 0.117,-1.659 l 0.176,-1.855 0.118,-2.098 0.058,-2.002 0.059,-1.171 0.996,-0.099 1.933,-0.146 2.577,-0.196 c 3.281,-0.342 4.92,-0.439 6.678,-0.439 4.803,0 8.025,0.929 10.368,2.881 2.226,1.855 3.456,4.442 3.456,7.371 0,4.783 -2.694,7.857 -8.201,9.469 l -6.15,1.806 c -2.753,0.829 -4.159,2.05 -4.159,3.66 0,2.197 2.05,3.563 5.331,3.563 2.227,0 4.217,-0.537 5.155,-1.366 0.82,-0.684 1.113,-1.464 1.229,-3.124 l 5.445,0 z"
                     id="path105"
                     inkscape:connector-curvature="0"
                     style="fill:#0089cf" /><path
                     d="m 134.604,124.134 c -0.644,-2.929 -1.991,-3.904 -5.447,-3.904 l -3.456,0 c -1.17,0 -2.107,0.39 -2.4,1.073 -0.234,0.44 -0.293,0.83 -0.293,2.051 l 0,17.277 c 0,2.637 0.527,3.369 2.46,3.369 l 1.054,0 0.177,3.562 -14.819,0 -0.177,-3.562 0.645,0 c 1.932,0 2.459,-0.732 2.459,-3.369 l 0,-18.693 c 0,-2.635 -0.527,-3.367 -2.459,-3.367 l -0.469,0 -0.176,-3.563 27.471,0 c 0.293,2.587 0.527,4.296 0.645,5.124 l 0.352,2.148 c 0.117,0.684 0.176,0.977 0.293,1.854 l -5.86,0 z"
                     id="path107"
                     inkscape:connector-curvature="0"
                     style="fill:#0089cf" /></g></g></g></g></g></g></g><g
       id="g109"><g
         id="g111"><path
           d="m 36.878,94.165 c 0.009,0.106 0.009,0.145 0.019,0.24 l 0.048,0.316 c 0.047,0.345 0.057,0.403 0.057,0.594 l -0.508,0 -0.009,-0.114 c -0.039,-0.422 -0.116,-0.46 -0.892,-0.46 l -0.958,0 c -0.46,0 -0.527,0.066 -0.527,0.498 l 0,1.697 2.387,0 -0.029,0.575 -2.357,0 0,1.802 c 0,0.536 0.115,0.671 0.565,0.671 l 1.084,0 c 0.776,0 0.939,-0.115 0.997,-0.701 l 0.517,0 c -0.009,0.231 -0.019,0.307 -0.096,0.912 -0.029,0.162 -0.029,0.211 -0.038,0.363 l -4.333,0 0.029,-0.383 0.077,0 c 0.335,0 0.403,-0.134 0.403,-0.767 l 0,-4.094 c 0,-0.632 -0.068,-0.767 -0.403,-0.767 l -0.105,0 0.029,-0.383 4.043,0 z"
           id="path113"
           inkscape:connector-curvature="0"
           style="fill:#00aeef" /><path
           d="m 41.779,95.374 c -0.038,-0.278 -0.125,-0.422 -0.335,-0.528 -0.231,-0.114 -0.566,-0.191 -0.893,-0.191 -0.853,0 -1.333,0.393 -1.333,1.102 0,0.536 0.298,0.862 0.92,1.017 l 1.006,0.239 c 0.931,0.23 1.419,0.834 1.419,1.764 0,1.208 -0.767,1.907 -2.09,1.907 -0.278,0 -0.412,-0.01 -1.323,-0.105 -0.239,-0.02 -0.316,-0.02 -0.757,-0.029 0.01,-0.096 0.01,-0.135 0.01,-0.21 0,-0.192 0,-0.336 -0.029,-0.797 l 0,-0.191 c 0,-0.039 0,-0.115 0.01,-0.202 l 0.508,0 c 0.067,0.699 0.393,0.892 1.496,0.892 0.537,0 0.873,-0.105 1.102,-0.365 0.192,-0.2 0.297,-0.508 0.297,-0.824 0,-0.604 -0.306,-0.968 -0.968,-1.122 l -0.892,-0.22 c -0.997,-0.239 -1.505,-0.815 -1.505,-1.715 0,-0.557 0.23,-1.064 0.633,-1.372 0.335,-0.259 0.795,-0.383 1.419,-0.383 0.221,0 0.383,0.009 0.681,0.047 0.479,0.059 0.689,0.077 0.939,0.077 l 0.172,0 0,0.106 0,0.201 c 0,0.067 0,0.163 0.01,0.278 0.019,0.259 0.019,0.354 0.019,0.422 0,0.077 0,0.105 -0.009,0.202 l -0.507,0 z"
           id="path115"
           inkscape:connector-curvature="0"
           style="fill:#00aeef" /><path
           d="m 47.619,95.363 c 0.008,-0.115 0.008,-0.182 0.008,-0.23 0,-0.345 -0.105,-0.392 -0.958,-0.392 l -0.46,0 0,4.668 c 0,0.633 0.067,0.767 0.403,0.767 l 0.105,0 -0.028,0.383 -1.783,0 0.029,-0.383 0.076,0 c 0.336,0 0.403,-0.134 0.403,-0.767 l 0,-4.668 -0.565,0 c -0.777,0 -0.787,0.009 -0.863,0.622 l -0.518,0 c 0.038,-0.259 0.058,-0.556 0.058,-0.939 0,-0.077 0,-0.144 -0.009,-0.259 l 4.649,0 c -0.009,0.279 -0.028,0.911 -0.038,1.198 l -0.509,0 z"
           id="path117"
           inkscape:connector-curvature="0"
           style="fill:#00aeef" /><path
           d="m 49.68,100.08 c 0,0.335 -0.23,0.546 -0.614,0.546 -0.306,0 -0.459,-0.124 -0.459,-0.383 0,-0.335 0.239,-0.546 0.623,-0.546 0.307,0 0.45,0.115 0.45,0.383 z"
           id="path119"
           inkscape:connector-curvature="0"
           style="fill:#00aeef" /></g><g
         id="g121"><path
           d="m 169.834,99.342 c -0.058,0.566 -0.058,0.652 -0.096,1.217 l -4.238,0 0,-0.584 2.57,-2.358 c 0.738,-0.68 0.988,-1.112 0.988,-1.725 0,-0.805 -0.443,-1.247 -1.238,-1.247 -0.824,0 -1.322,0.384 -1.668,1.286 l -0.574,-0.259 c 0.162,-0.518 0.316,-0.778 0.604,-1.045 0.412,-0.393 0.979,-0.584 1.678,-0.584 1.274,0 1.965,0.68 1.965,1.927 0,0.796 -0.393,1.428 -1.39,2.262 l -1.976,1.658 2.091,0 c 0.622,0 0.767,-0.086 0.872,-0.546 l 0.412,0 z"
           id="path123"
           inkscape:connector-curvature="0"
           style="fill:#00aeef" /><path
           d="m 175.145,94.827 c 0.374,0.565 0.518,1.275 0.518,2.588 0,1.197 -0.154,1.937 -0.518,2.483 -0.336,0.498 -0.959,0.786 -1.726,0.786 -0.767,0 -1.39,-0.288 -1.726,-0.786 -0.374,-0.556 -0.518,-1.286 -0.518,-2.54 0,-1.247 0.153,-1.985 0.518,-2.531 0.336,-0.499 0.969,-0.786 1.716,-0.786 0.777,0 1.391,0.278 1.736,0.786 z m -2.858,0.402 c -0.25,0.431 -0.345,1.026 -0.345,2.129 0,1.111 0.095,1.696 0.345,2.137 0.211,0.365 0.633,0.585 1.132,0.585 0.499,0 0.921,-0.22 1.132,-0.585 0.249,-0.44 0.344,-1.025 0.344,-2.089 0,-1.16 -0.095,-1.735 -0.344,-2.176 -0.211,-0.374 -0.633,-0.585 -1.132,-0.585 -0.509,-10e-4 -0.921,0.21 -1.132,0.584 z"
           id="path125"
           inkscape:connector-curvature="0"
           style="fill:#00aeef" /><path
           d="m 179.219,94.108 c -0.037,0.412 -0.057,0.853 -0.057,1.399 l 0,5.051 -0.737,0 0,-5.396 c -0.384,0.259 -0.796,0.46 -1.429,0.681 l -0.192,-0.576 c 0.931,-0.316 1.869,-0.853 2.032,-1.159 l 0.383,0 z"
           id="path127"
           inkscape:connector-curvature="0"
           style="fill:#00aeef" /><path
           d="m 181.701,97.454 c 0.047,-0.192 0.047,-0.25 0.086,-0.805 l 0.077,-2.483 3.191,0 c 0,0.528 0.011,0.614 0.028,1.141 l -0.412,0 c -0.027,-0.413 -0.105,-0.469 -0.65,-0.469 l -1.533,0 -0.068,1.946 c 0.393,-0.201 0.689,-0.278 1.131,-0.278 1.228,0 1.879,0.662 1.879,1.927 0,1.457 -0.805,2.253 -2.281,2.253 -0.881,0 -1.467,-0.229 -2.042,-0.806 l 0.46,-0.499 c 0.508,0.508 0.93,0.7 1.543,0.7 1.036,0 1.555,-0.517 1.555,-1.553 0,-0.892 -0.402,-1.341 -1.209,-1.341 -0.441,0 -0.767,0.124 -1.274,0.479 l -0.481,-0.212 z"
           id="path129"
           inkscape:connector-curvature="0"
           style="fill:#00aeef" /></g></g><g
       id="g131"><defs
         id="defs133"><circle
           id="SVGID_3_"
           cx="108.401"
           cy="108.329"
           r="53.296001" /></defs><clipPath
         id="SVGID_4_"><use
           xlink:href="#SVGID_3_"
           overflow="visible"
           id="use137"
           style="overflow:visible"
           x="0"
           y="0"
           width="100%"
           height="100%" /></clipPath><use
         xlink:href="#SVGID_3_"
         overflow="visible"
         stroke-miterlimit="10"
         id="use139"
         style="overflow:visible;fill:none;stroke:#ffffff;stroke-width:1.9928;stroke-miterlimit:10"
         x="0"
         y="0"
         width="100%"
         height="100%" /></g></g></svg>